<svg id="Capa_1" enable-background="new 0 0 512 512" height="512" viewBox="0 0 512 512" width="512" xmlns="http://www.w3.org/2000/svg"><g><g><g><g><g><g><g><g><g><path d="m10.755 329.659c-6.996-23.327-10.755-48.054-10.755-73.659 0-141.385 114.615-256 256-256s256 114.615 256 256-114.615 256-256 256c-82.892 0-156.582-39.396-203.367-100.486z" fill="#ff73a5"/></g></g></g></g></g></g></g></g><path d="m511.995 257.513-183.775-183.775-57.231 69.225 38.085 38.085-90.076 77.382 32.963 32.962-199.326 120.124 47.848 47.848c43.11 33.017 97.022 52.636 155.517 52.636 140.88 0 255.181-113.798 255.995-254.487z" fill="#ff468c"/><g><path d="m371.552 322.883-92.656 57.914-65.348-36.226 72.507-19.471c9.459-4.715 14.256-15.472 11.443-25.663-2.947-10.68-13.344-17.526-24.316-16.012l-92.833 2.652c-12.448.355-24.814 2.139-36.856 5.314l-132.738 38.267c8.987 29.964 23.315 57.619 41.879 81.858 34.72-13.963 66.406-26.35 66.406-26.35l120.379 45.451c21.24 7.944 45.024 4.97 63.654-7.96l112.438-80.217-6.853-11.365c-7.878-12.658-24.629-16.356-37.106-8.192z" fill="#ffdecf"/></g><g><path d="m408.658 331.076c-7.879-12.659-24.629-16.357-37.106-8.193l-92.656 57.914-65.348-36.226 72.507-19.471c9.459-4.715 14.256-15.472 11.443-25.663-2.947-10.68-13.344-17.526-24.316-16.012l-92.833 2.652c-.245.007-.49.023-.735.031v121.927l59.805 22.58c21.24 7.944 45.024 4.97 63.654-7.96l112.438-80.217z" fill="#ffbeaa"/></g><g><path d="m372.577 258.429h-153.579v-24.037c0-41.52 33.658-75.178 75.178-75.178h3.223c41.52 0 75.178 33.658 75.178 75.178z" fill="#ffce00"/></g><g><circle cx="295.787" cy="105.19" fill="#ffce00" r="45.19"/></g><g><path d="m372.577 234.393c0-41.52-33.658-75.178-75.178-75.178h-2.121v99.215h77.299z" fill="#fdba12"/></g><g><path d="m295.787 60c-.171 0-.339.011-.51.013v90.355c.171.002.339.013.51.013 24.958 0 45.19-20.232 45.19-45.19 0-24.959-20.232-45.191-45.19-45.191z" fill="#fdba12"/></g></g></svg>