<?xml version="1.0" encoding="utf-8"?>
<!-- Generator: Adobe Illustrator 19.2.1, SVG Export Plug-In . SVG Version: 6.00 Build 0)  -->
<svg version="1.1" id="Capa_1" xmlns="http://www.w3.org/2000/svg" xmlns:xlink="http://www.w3.org/1999/xlink" x="0px" y="0px"
	 viewBox="0 0 512 512" style="enable-background:new 0 0 512 512;" xml:space="preserve">
<style type="text/css">
	.st0{fill:#FAFAFA;}
	.st1{fill:#0096F5;}
	.st2{fill:#0072BF;}
	.st3{fill:#F9F9F9;}
</style>
<polygon class="st0" points="392.8,150.7 387.6,208.6 372.1,382.1 256,414.2 255.9,414.2 139.9,382.1 131.8,291.4 188.6,291.4 
	192.9,338.4 255.9,355.5 256,355.4 319.1,338.4 327.7,260 129.1,260.5 123.5,206.9 332.5,204.4 336.7,147 117.9,147.6 114.2,94.2 
	256,94.2 397.8,94.2 "/>
<g>
	<polygon class="st1" points="25.8,0 67.8,460.7 256,511.3 444.2,461.1 486.2,0 	"/>
	<path class="st2" d="M254.8,0l1.2,512.1l188.2-50.6L486.1,0H254.8z"/>
	<polygon class="st3" points="396.3,147.4 391,205.8 375,380.1 255.8,412.4 255.7,412.5 136.5,381.1 128.2,291 186.6,291 
		190.9,337.3 255.7,354 255.8,353.7 320.7,336.5 329.5,257.8 125.4,258.3 119.6,204.5 334.4,202 338.7,144.4 113.8,144.3 110.1,90 
		255.8,90 401.5,90 	"/>
</g>
</svg>
