<svg id="Capa_1" data-name="Capa 1" xmlns="http://www.w3.org/2000/svg" viewBox="0 0 438.04 437.56"><defs><style>.cls-1{fill:#56918e;}</style></defs><title>email</title><path class="cls-1" d="M217.92,0C97.76,0,0,97.76,0,217.92S97.76,437.56,217.92,437.56s219.63-99.47,219.63-219.63S338.09,0,217.92,0Zm91.44,282a51.17,51.17,0,0,1-41.89-21.87,63.83,63.83,0,0,1-111.94-42.22c0-35.34,31.21-64.1,66.55-64.1,14.48,0,24.91,5,40.91,13.15v-0.33c0-7.09,4.91-12.82,12-12.82s12,5.73,12,12.82v64.1c0,14.13,9.87,25.64,24,25.64s24.82-11.5,24.82-25.64c0-85.79-57.18-128.19-115.78-128.19-63.62,0-115.58,51.75-115.58,115.37A115.41,115.41,0,0,0,219.73,333.29a114,114,0,0,0,70.08-23.76c13.52-10.32,29,10.05,15.6,20.33a139.67,139.67,0,0,1-85.77,29.07c-77.75,0-141-63.26-141-141s63.25-141,141-141c70.84,0,141,52.25,141,153.83A51.33,51.33,0,0,1,309.37,282Z"/><path class="cls-1" d="M858,606.87c0-120.79-98-218.69-218.81-218.69s-218.75,97.9-218.75,218.69,98.89,218.69,219.68,218.69c1.28,0,4.84,0,4.84-.09V655H598V600h47V560.23C645,513.5,672.37,488,714.05,488A408.64,408.64,0,0,1,755,490.18V536H726.59C703.95,536,700,549.81,700,565.61V600h53.75l-7.09,55H700V817.1C795,790.87,858,706.73,858,606.87Z"/></svg>