<?xml version="1.0" encoding="utf-8"?>
<!-- Generator: Adobe Illustrator 19.2.1, SVG Export Plug-In . SVG Version: 6.00 Build 0)  -->
<svg version="1.1" id="Capa_1" xmlns="http://www.w3.org/2000/svg" xmlns:xlink="http://www.w3.org/1999/xlink" x="0px" y="0px"
	 viewBox="0 0 438 437.6" style="enable-background:new 0 0 438 437.6;" xml:space="preserve">
<style type="text/css">
	.st0{fill:#56918E;}
</style>
<path class="st0" d="M438,218.9C438,98.1,340,0.2,219.2,0.2S0.5,98.1,0.5,218.9s98.9,218.7,219.7,218.7c1.3,0,4.8,0,4.8-0.1V267h-47
	v-55h47v-39.8c0-46.7,27.4-72.2,69.1-72.2c20,0,32.9,1.5,40.9,2.1V148h-28.4c-22.6,0-26.6,13.8-26.6,29.6V212h53.8l-7.1,55H280
	v162.1C375,402.9,438,318.7,438,218.9z"/>
</svg>
