<svg id="Capa_1" data-name="Capa 1" xmlns="http://www.w3.org/2000/svg" viewBox="0 0 512 354.33"><defs><style>.cls-1{opacity:0.9;}.cls-2{fill:#365e7d;}.cls-3{fill:#294b64;}.cls-4{fill:#477b9e;}.cls-5{fill:#3f6d8e;}.cls-6{fill:#ecf4ff;}.cls-7{fill:#ffd064;}.cls-8{fill:#ebb044;}.cls-9{fill:#ffe07d;}</style></defs><title>gorro</title><g class="cls-1"><path class="cls-2" d="M109,242.4l4.83,10S190.41,314.55,256,314.55s142.51-62.29,142.51-62.29L403,242.17h0a705.38,705.38,0,0,1-22.74-84.11l-14-7.89H143.71l-12,8c-6.34,31.9-15.75,62.17-22.75,84.17v0.06Z"/><path class="cls-3" d="M174,153.67l5.14-3.51H143.71l-12,8c-6.34,31.9-15.75,62.17-22.75,84.17v0l4.83,10A361.7,361.7,0,0,0,143.9,273.5C154.61,237.71,165.54,196.43,174,153.67Z"/><path class="cls-4" d="M507.06,82.63L268.79,2.1a40,40,0,0,0-25.59,0L4.94,82.63A7.27,7.27,0,0,0,4.08,96L238.49,210.32a40,40,0,0,0,35,0L507.92,96a7.27,7.27,0,0,0-.86-13.41h0Z"/><path class="cls-5" d="M76.19,96a7.26,7.26,0,0,1,.86-13.41L292.06,10,268.79,2.1a40,40,0,0,0-25.59,0L4.94,82.63A7.27,7.27,0,0,0,4.08,96L238.49,210.32a40,40,0,0,0,35,0l18.55-9Z"/><path class="cls-6" d="M454.5,285.17a7.67,7.67,0,0,1-7.5-7.88V134.4a8.28,8.28,0,0,0-6.26-7.8l-174.49-46a7.72,7.72,0,1,1,3.85-14.94l174.35,46A23.51,23.51,0,0,1,462,134.39V277.28a7.77,7.77,0,0,1-7.62,7.88h0.11Z"/><path class="cls-7" d="M467.79,294.17H440.74l-3.22,50.19a7.24,7.24,0,0,0,7,7.81H464a7.24,7.24,0,0,0,7-7.81Z"/><path class="cls-8" d="M455.13,344.35l3.22-50.19H440.74l-3.22,50.19a7.24,7.24,0,0,0,7,7.81H462.1A7.24,7.24,0,0,1,455.13,344.35Z"/><path class="cls-9" d="M460.53,258.17H448c-6.24,0-11,5.44-11,11.68v22.52a3.52,3.52,0,0,0,3.37,3.8h27.79a3.9,3.9,0,0,0,3.84-3.8V269.85a11.58,11.58,0,0,0-11.41-11.51Z"/><path class="cls-7" d="M457,292.36V269.84A11.41,11.41,0,0,1,464.44,259a12.63,12.63,0,0,0-3.91-.8H448c-6.24,0-11,5.44-11,11.68v22.52a3.52,3.52,0,0,0,3.37,3.8h19.92C458.24,296.17,457,294.41,457,292.36Z"/><path class="cls-5" d="M257.39,51.17c-14.86,0-27.39,11.36-27.39,26v0.13c0,6.59,6,11.85,12.56,11.85h26.88c6.37,0,12.52-5.17,12.12-13.47a26.22,26.22,0,0,0-24.07-24.53h-0.1Z"/><path class="cls-2" d="M254,77.17v0A25.4,25.4,0,0,1,267.75,54.4a26.6,26.6,0,0,0-10.26-2.75A25.85,25.85,0,0,0,230,77.19v0.13c0,6.59,6,11.85,12.56,11.85h23.18a11.76,11.76,0,0,1-11.95-12H254Z"/><path class="cls-9" d="M403,242.4c-26.85,22.07-70.52,46.77-117.69,62a96,96,0,0,1-58.6,0C179.63,289.2,136,264.56,109,242.4c-2.58,7.71-5,14.42-6.93,19.83a22.9,22.9,0,0,0,7.31,25.87C152.51,322,198,340.52,226.7,349.76a96.06,96.06,0,0,0,58.6,0C314,340.52,359.48,322,402.61,288.1a22.9,22.9,0,0,0,7.31-25.87c-2-5.41-4.35-12.12-6.93-19.83h0Z"/><path class="cls-7" d="M145.64,267.72A298.89,298.89,0,0,1,109,242.4c-2.58,7.71-5,14.42-6.93,19.83a22.9,22.9,0,0,0,7.31,25.87c8.14,6.39,16.35,12.24,24.53,17.58,3.81-11.81,7.76-24.53,11.73-38h0Z"/></g></svg>