<svg id="Capa_1" data-name="Capa 1" xmlns="http://www.w3.org/2000/svg" xmlns:xlink="http://www.w3.org/1999/xlink" viewBox="0 0 69.94 58.31"><defs><style>.cls-1{fill:#e6b041;stroke:#fff;stroke-miterlimit:10;stroke-width:2px;}</style><symbol id="_3" data-name="3" viewBox="0 0 279.03 235.74"><path class="cls-1" d="M155.32,159.67l-24.85,23.54C98.82,185.62,75.83,172,86,155.69s5.56-12.52,5.56-12.52,23.88-27.73,22.83-1.68c0,0-5.29,12.2-7.53,16.62S96.23,169.51,155.32,159.67Z"/><polygon class="cls-1" points="214.73 167.01 150.84 164.42 130.47 183.21 214.73 167.01"/><path class="cls-1" d="M73.57,197c9.55-3.69,73.64-29,96.44-58.93,35.5-46.62-11.21-30.71-46-42.25-39-12.95-42.9-37.62-42.9-37.62-2.57-22.07,11-36.3,26.05-45.18C122.36,4,140.93.8,157.62,1c223.85,2.82,67,49.6,67,49.6,80.8-26.53-34-30-67.78-29-7,.22-14,0.5-20.81,2.27-11.53,3-18.65,7.82-23,12.43a22.29,22.29,0,0,0-3.92,25.26c6.41,12.74,36.29,19,64.54,21.32a174.47,174.47,0,0,1,26,4.33c9.59,2.76,14.43,8.89,12.67,20.67-10.53,70.37-142.1,116.21-142.1,116.21s-64,27.11-68.93-5.44C-2.88,191.53,48.87,146.2,66,132a85.63,85.63,0,0,1,15.65-10.39c17.92-9.13,24.11-4.19,24.11-4.19,21.88,8.62,1.08,40.69,1.08,40.69,16.42-39.66-21.13-10.93-21.13-10.93C43.1,180.6,29.52,204.36,26.69,210a0.79,0.79,0,0,0,.81,1.13S54,204.51,73.57,197Z"/></symbol></defs><title>logofinal-09</title><use width="279.03" height="235.74" transform="translate(0.27 0.25) scale(0.25)" xlink:href="#_3"/></svg>