<svg id="Capa_1" data-name="Capa 1" xmlns="http://www.w3.org/2000/svg" xmlns:xlink="http://www.w3.org/1999/xlink" viewBox="0 0 684.21 284.67"><defs><style>.cls-1{fill:#e6b041;}.cls-1,.cls-2{stroke:#fff;stroke-miterlimit:10;stroke-width:2px;}.cls-2{fill:#569f98;}.cls-3{fill:#e5eaf3;}.cls-4{fill:#d5dfed;}.cls-5{fill:#b18a8a;}.cls-6{fill:#a57e7d;}.cls-7{fill:#986869;}</style><symbol id="logo-2" data-name="logo" viewBox="0 0 568.03 235.74"><path class="cls-1" d="M155.32,159.67l-24.85,23.54C98.82,185.62,75.83,172,86,155.69s5.56-12.52,5.56-12.52,23.88-27.73,22.83-1.68c0,0-5.29,12.2-7.53,16.62S96.23,169.51,155.32,159.67Z"/><polygon class="cls-1" points="536.73 167.01 150.84 164.42 130.47 183.21 536.73 167.01"/><path class="cls-1" d="M73.57,197c9.55-3.69,73.64-29,96.44-58.93,35.5-46.62-11.21-30.71-46-42.25-39-12.95-42.9-37.62-42.9-37.62-2.57-22.07,11-36.3,26.05-45.18C122.36,4,140.93.8,157.62,1c223.85,2.82,67,49.6,67,49.6,80.8-26.53-34-30-67.78-29-7,.22-14,0.5-20.81,2.27-11.53,3-18.65,7.82-23,12.43a22.29,22.29,0,0,0-3.92,25.26c6.41,12.74,36.29,19,64.54,21.32a174.47,174.47,0,0,1,26,4.33c9.59,2.76,14.43,8.89,12.67,20.67-10.53,70.37-142.1,116.21-142.1,116.21s-64,27.11-68.93-5.44C-2.88,191.53,48.87,146.2,66,132a85.63,85.63,0,0,1,15.65-10.39c17.92-9.13,24.11-4.19,24.11-4.19,21.88,8.62,1.08,40.69,1.08,40.69,16.42-39.66-21.13-10.93-21.13-10.93C43.1,180.6,29.52,204.36,26.69,210a0.79,0.79,0,0,0,.81,1.13S54,204.51,73.57,197Z"/><path class="cls-2" d="M345.34,148.36c-0.36,1.4.74,1.46,1.84,1,1.84-.72,6.3-4.7,13.25-9.88l2.12,3.06c-5.65,5.65-17.43,21.37-25.79,21.37-4.24,0-7.51-5.68-4.82-13.08,0.48-1.31,1.51-5.74,9.19-20.06l-25.67.82-24.14,24c-2.83,2.82-7.3,7.77-11.54,7.77-1.77,0-4.12-.35-4.12-2.59,0-3.88,9.07-15.19,20.14-19.07L305,131.61c-7.53.23-11.42,0.7-11.42-2.36,0-2.24,8.6-12.12,14.84-14.13,4.59-1.53,10.95-2.47,10.95-.82,0,2.12-8.59,1.06-8.59,3.18,0,0.82,1.06,1.06,1.65,1.06,1.88-.12,6.71-0.35,7.18-0.35L346,96.29C357.5,86.76,371.63,76,376.92,76,379.4,76,381,79,381,81.11c0,2.47-2.47,6.48-3.65,8.59l-14.6,25.55c8.71,0,3.41-1.18,10.83.47a80.15,80.15,0,0,0-8.83,13.42l-9.42.47Zm20.51-59.48-0.24-.24-34,28.13,0.24,0.24,18-1.29Z"/><path class="cls-2" d="M251.16,142v4.25a33.55,33.55,0,0,1-6.73,5.08q-2.54,1.27-7.3,1-8.25,9.78-14.54,9.78a10.08,10.08,0,0,1-6.47-2.35,16.25,16.25,0,0,1-4.67-6.41,22.74,22.74,0,0,1-1.75-9.08,19.15,19.15,0,0,1,2.7-9,40.4,40.4,0,0,1,7-9.24,39.47,39.47,0,0,1,9.17-6.92,19.33,19.33,0,0,1,9.08-2.63,10,10,0,0,1,4.7.92,2.83,2.83,0,0,1,1.71,2.57,4.73,4.73,0,0,1-1.46,2.92,5.4,5.4,0,0,1,3.3,1.68q0.89,1.18.89,4.29a27.19,27.19,0,0,1-1.43,7.68,38.37,38.37,0,0,1-3.9,8.7l1.14,1.14h1a4.6,4.6,0,0,0,2.13-.54,14.08,14.08,0,0,0,1.87-1.14Zm-13.08-16.69q-5.27,3.17-9,5.74a43.63,43.63,0,0,0-6.35,5.21,14,14,0,0,0-3.49,5.3q-1.59,7.11-1.59,7.68,0,4.19,5.84,4.19,2.73,0,9.14-4.7a16.77,16.77,0,0,1-1.08-5.71,22,22,0,0,1,1.65-8.16A67.47,67.47,0,0,1,238.09,125.35Z"/><path class="cls-2" d="M281.38,141.47v4.7q-13.27,17.58-21.58,17.58-4.51,0-7.08-4.92t-2.57-12.92a48.84,48.84,0,0,1,3-15.39,111.09,111.09,0,0,1,8.16-18.09,114,114,0,0,1,10.6-16q5.49-6.82,10.19-9.55a6.49,6.49,0,0,1,3-1.14,1.73,1.73,0,0,1,1.78,1.17,12.71,12.71,0,0,1,.44,4q0,8.82-7.17,21.68a130.76,130.76,0,0,1-20,26.25,29,29,0,0,0-.63,5.08,11.41,11.41,0,0,0,1.75,6.6,5.57,5.57,0,0,0,4.86,2.54,6.26,6.26,0,0,0,3.43-1.24,34.73,34.73,0,0,0,3.87-3.08Q275.47,146.93,281.38,141.47ZM262.4,130a63.47,63.47,0,0,0,6.38-7.36,92.29,92.29,0,0,0,5.81-8.82,72.43,72.43,0,0,0,4.28-8.44,16.52,16.52,0,0,0,1.56-5.65q0-1.46-1-1.46A3.71,3.71,0,0,0,278,99q-3.87,3.17-8.7,12.41A73.91,73.91,0,0,0,262.4,130Z"/><path class="cls-2" d="M365.69,149.05v-4.13A62.44,62.44,0,0,0,370.9,138a7,7,0,0,1-3-1.71,4.4,4.4,0,0,1-.92-3,12.85,12.85,0,0,1,1.9-5.78,33.15,33.15,0,0,1,4.7-6.54A14.71,14.71,0,0,1,378.7,117a3.83,3.83,0,0,1,1.71-.44,1.1,1.1,0,0,1,1.27,1.21q0,1.08-2,4.38,13.08-2,16.5-2a4.59,4.59,0,0,1,1.84.25,4.46,4.46,0,0,1,1.78,2.67,13.2,13.2,0,0,1,.7,4.19,4.92,4.92,0,0,1-1.17,2.89,57.54,57.54,0,0,1-4,4.54,37.8,37.8,0,0,0-5.65,7.87q-2.29,4.25-2.29,6.41,0,3,3.68,3,3.87,0,13.46-7.87v4.25q-5.27,5.52-8.7,8.7a46.51,46.51,0,0,1-6.35,5,10,10,0,0,1-5.21,1.87,5.32,5.32,0,0,1-4.44-2.44q-1.78-2.44-1.78-7.08a17,17,0,0,1,1.4-6.22,43.13,43.13,0,0,1,4.09-7.59,93.31,93.31,0,0,1,6.06-8.16q-1.78.38-4,.79l-4.7.86-3.81.7A45.77,45.77,0,0,1,365.69,149.05Z"/><path class="cls-2" d="M428.57,109.22h2.73a35.28,35.28,0,0,1,6.09-8.54,8.94,8.94,0,0,1,6.22-2.51q3.49,0,3.49,1.59,0,0.76-2.73,4.13a54.77,54.77,0,0,0-4.13,5.65l3.84,0.44,2.63,0.32a99.91,99.91,0,0,1-9.08,13.77l-3-.22-2.44-.19-3-.22q-3.43,5.52-5.75,9.87a55.22,55.22,0,0,0-3.55,8,21.22,21.22,0,0,0-1.24,6.86q0,4.38,3.49,4.38,2.41,0,6.32-2.57t10.44-7.9v4.25q-17.14,18.6-25.33,18.6a5.57,5.57,0,0,1-4.6-2.22,9,9,0,0,1-1.75-5.71,19.66,19.66,0,0,1,1-5.59q1-3.24,3.52-9.78-0.89.76-1.68,1.49l-1.46,1.33-1.43,1.27c-0.51.45-2.13,2.14-2.63,2.6V144c4.44-3.72,10.93-11.63,17.23-21L420,123q-0.83,0-2,0a22.68,22.68,0,0,0-5.59.51q-0.76.19-1.43,0.41a3.51,3.51,0,0,1-.92.22c-0.17,0-.25-0.13-0.25-0.38q0-2.09,2.6-6.28a23.16,23.16,0,0,1,4-5.27,9.78,9.78,0,0,1,4.57-2.32A36.7,36.7,0,0,1,428.57,109.22Z"/><path class="cls-2" d="M447.94,144.45V146a8.55,8.55,0,0,0,1.84,5.84,6.11,6.11,0,0,0,4.82,2.09,16,16,0,0,0,6.44-1.46,35.2,35.2,0,0,0,6.63-3.87q3.3-2.41,8.06-6.47V146a78.72,78.72,0,0,1-13.46,13.23,21.43,21.43,0,0,1-12.76,4.6,10.62,10.62,0,0,1-9-4.38q-3.3-4.38-3.3-12a23.88,23.88,0,0,1,3.11-12.09q3.11-5.43,10.16-11.46a39.23,39.23,0,0,1,9.58-6.22,21.49,21.49,0,0,1,8.51-2.09,7.49,7.49,0,0,1,4.73,1.36,4.88,4.88,0,0,1,1.75,4.09,13.21,13.21,0,0,1-3,8,34.39,34.39,0,0,1-9.11,7.87A93.27,93.27,0,0,1,447.94,144.45Zm0.63-4.13a36.13,36.13,0,0,0,9.78-5.52,28.12,28.12,0,0,0,6-6.32q1.94-3,1.94-4.41a1.24,1.24,0,0,0-1.33-1.46,9.12,9.12,0,0,0-3.71,1.46,30.57,30.57,0,0,0-5.21,3.81,28,28,0,0,0-4.73,5.52A17.84,17.84,0,0,0,448.58,140.33Z"/><path class="cls-3" d="M480.13,156.7a3.65,3.65,0,0,1-1.69-4.79l37.21-95.09a3.66,3.66,0,0,1,4.81-1.66l35.49-.43c7.1,0.37,8.55-.38,10.85,2.09h0a3.53,3.53,0,0,1,.56,3.86l-35,95.79a3.64,3.64,0,0,1-4.72,1.87l-47.44-1.55Z"/><path class="cls-4" d="M567.13,57.19l-1.21-1.31a3.62,3.62,0,0,0-5.44,0,3.49,3.49,0,0,0-.44.71l-35,95.78c-0.83,1.79.1,2.8,1.76,4.89l0.5,0.61a3.12,3.12,0,0,0,4.15.67,2.83,2.83,0,0,0,.95-1.11l35.43-96.7A3.59,3.59,0,0,0,567.13,57.19Z"/><path class="cls-5" d="M482.47,153.61a3.59,3.59,0,0,1,4.71-1.88l33.39-.18a2.83,2.83,0,0,1,2.87,3v0c-0.1,1.33-1.25,2.57-2,3.67l-2,3.85c-0.83,1.84-2.94,3.39-4.71,2.59l-33.41,0a3.59,3.59,0,0,1-1.7-4.78Z"/><path class="cls-6" d="M513.6,159.78c-0.74,1.66-.45,4,1.15,4.71l0.67,0.3c1.6,0.71,3.91-.48,4.65-2.14l3.09-7.09a3.23,3.23,0,0,0-1.56-4.29l-0.67-.3c-1.69-.26-3.49.06-4.23,1.72Z"/><path class="cls-7" d="M533.24,49.3c0-1.35,1.39-2.29,3.3-2.3l7-.29c1.9,0,3.65.93,3.65,2.28l0,7.25-14-2.19V49.3Z"/><path class="cls-5" d="M525.76,52.5A2.49,2.49,0,0,1,529,51.13l23.17-.58a2,2,0,0,1,2,2v0a6,6,0,0,1-1.34,2.58l-1.33,2.7c-0.55,1.29-2,2.4-3.23,1.86l-23.19.44a2.49,2.49,0,0,1-1.25-3.29Z"/><path class="cls-6" d="M547.44,56.43c-0.5,1.16-.28,2.78.83,3.26l0.47,0.2A2.74,2.74,0,0,0,552,58.36L554,53.41a2.24,2.24,0,0,0-1.12-3l-0.47-.2a2.53,2.53,0,0,0-2.92,1.23Z"/></symbol></defs><title>Logo</title><use width="568.03" height="235.74" transform="translate(0.58 1.29) scale(1.2 1.2)" xlink:href="#logo-2"/></svg>