<?xml version="1.0" encoding="utf-8"?>
<!-- Generator: Adobe Illustrator 19.2.1, SVG Export Plug-In . SVG Version: 6.00 Build 0)  -->
<svg version="1.1" id="Capa_1" xmlns="http://www.w3.org/2000/svg" xmlns:xlink="http://www.w3.org/1999/xlink" x="0px" y="0px"
	 viewBox="0 0 512 512" style="enable-background:new 0 0 512 512;" xml:space="preserve">
<style type="text/css">
	.st0{fill:#348FD9;}
	.st1{fill:#225E90;}
	.st2{fill:#62A9E6;}
	.st3{fill:#FFB531;}
	.st4{fill:#CF3B2E;}
	.st5{fill:#FA9F0C;}
	.st6{fill:#FFCB73;}
	.st7{fill:#F35244;}
	.st8{fill:#DE4132;}
</style>
<path class="st0" d="M56,240c0-92.8,75.2-168,168-168c44.6,0,87.3,17.7,118.8,49.2l22.6-22.6C328,61,277.1,39.9,224,40
	C113.5,40,24,129.5,24,240s89.5,200,200,200v-32C131.2,408,56,332.8,56,240L56,240z"/>
<path class="st1" d="M56,240c0,92.8,75.2,168,168,168V240l118.8-118.8c-65.6-65.6-172-65.6-237.6,0C73.7,152.7,56,195.4,56,240z"/>
<g>
	<path class="st2" d="M153.1,119.3l13.9-8l16,27.7l-13.9,8L153.1,119.3z"/>
	<path class="st2" d="M103.3,174.9l8-13.9l27.7,16l-8,13.9L103.3,174.9z"/>
	<path class="st2" d="M88,232h32v16H88V232z"/>
	<path class="st2" d="M103.3,305.1l27.7-16l8,13.9l-27.7,16L103.3,305.1z"/>
	<path class="st2" d="M153.1,360.7l16-27.7l13.9,8l-16,27.7L153.1,360.7z"/>
	<path class="st2" d="M273.1,140l16-27.7l13.9,8l-16,27.7L273.1,140z"/>
</g>
<path class="st3" d="M224,107L224,107c8.8,0,16,7.2,16,16v120c0,8.8-7.2,16-16,16l0,0c-8.8,0-16-7.2-16-16V123
	C208,114.2,215.2,107,224,107z"/>
<path class="st4" d="M237.5,234.4c4.7,7.5,2.5,17.4-5,22.1L176,291c-7.5,4.7-17.4,2.5-22.1-5c-4.7-7.5-2.5-17.4,5-22.1l56.5-34.6
	C222.9,224.6,232.8,226.9,237.5,234.4z"/>
<path class="st3" d="M488,237.4c0.1-53.1-21-104-58.6-141.4l-22.6,22.6c65.6,65.6,65.6,172,0,237.6c0,0,0,0,0,0l22.6,22.6
	C467,341.4,488.1,290.5,488,237.4L488,237.4z"/>
<path class="st5" d="M406.8,356.2c65.6-65.6,65.6-172,0-237.6c0,0,0,0,0,0L288,237.4L406.8,356.2z"/>
<path class="st6" d="M381,302.9l8-13.9l27.7,16l-8,13.9L381,302.9z"/>
<path class="st6" d="M400,232h32v16h-32V232z"/>
<path class="st6" d="M381,177.1l27.7-16l8,13.9l-27.7,16L381,177.1z"/>
<path class="st7" d="M264,440v32c53.1,0.1,104-21,141.4-58.6l-22.6-22.6C351.3,422.3,308.6,440.1,264,440L264,440z"/>
<path class="st8" d="M264,440c44.6,0.1,87.3-17.7,118.8-49.2L264,272V440z"/>
<path class="st7" d="M297.1,381l13.9-8l16,27.7l-13.9,8L297.1,381z"/>
<circle class="st8" cx="224" cy="243" r="24"/>
</svg>
