<?xml version="1.0" encoding="utf-8"?>
<!-- Generator: Adobe Illustrator 19.2.1, SVG Export Plug-In . SVG Version: 6.00 Build 0)  -->
<svg version="1.1" id="Capa_1" xmlns="http://www.w3.org/2000/svg" xmlns:xlink="http://www.w3.org/1999/xlink" x="0px" y="0px"
	 viewBox="0 0 438 437.6" style="enable-background:new 0 0 438 437.6;" xml:space="preserve">
<style type="text/css">
	.st0{fill:#56918E;}
</style>
<path class="st0" d="M219.1,0H219C98.7,0,0.9,98.5,0.9,218.8c0,47.7,15.4,92.3,41.5,128.2l-27.2,81.2l83.8-26.7
	c34.5,22.8,75.6,36.1,120,36.1c120.2,0,218-98.5,218-218.8S339.3,0,219.1,0z M346,309.4c-5.3,14.9-26.1,27.2-42.8,30.8
	c-11.4,2.4-26.3,4.4-76.4-16.4c-64.1-26.6-105.4-91.7-108.6-95.9c-3.1-4.2-25.9-34.5-25.9-65.8s15.9-46.5,22.3-53.1
	c5.3-5.4,14-7.8,22.3-7.8c2.7,0,5.1,0.1,7.3,0.2c6.4,0.3,9.6,0.7,13.8,10.8c5.3,12.7,18.1,44,19.6,47.2c1.6,3.2,3.1,7.6,0.9,11.8
	c-2,4.4-3.8,6.3-7.1,10c-3.2,3.7-6.3,6.5-9.5,10.5c-2.9,3.5-6.3,7.2-2.6,13.6c3.7,6.3,16.5,27.2,35.4,44
	c24.3,21.7,44.1,28.6,51.1,31.5c5.3,2.2,11.5,1.7,15.4-2.4c4.9-5.3,10.9-14,17-22.6c4.4-6.2,9.9-6.9,15.6-4.7
	c5.9,2,37,17.4,43.5,20.6c6.4,3.2,10.6,4.7,12.2,7.4C351.2,281.8,351.2,294.5,346,309.4z"/>
</svg>
